<svg viewBox="0 0 200 200" xmlns="http://www.w3.org/2000/svg">
  <!-- Definiciones para el brillo -->
  <defs>
    <radialGradient id="centerGlow" cx="50%" cy="50%" r="50%" fx="50%" fy="50%">
      <stop offset="0%" stop-color="#5c284f" stop-opacity="1" />
      <stop offset="80%" stop-color="#5c284f" stop-opacity="1" />
      <stop offset="100%" stop-color="#5c284f" stop-opacity="0" />
    </radialGradient>
  </defs>

  <!-- Círculo de fondo blanco -->
  <circle cx="100" cy="100" r="95" fill="white" stroke="#222" stroke-width="2"/>
  
  <!-- Sutil brillo alrededor del centro -->
  <circle cx="100" cy="100" r="18" fill="url(#centerGlow)" opacity="0.3"/>
  
  <!-- Líneas curvas de conexión (rayos) -->
  <path d="M100,100 Q90,80 70,60" stroke="#4a7a96" stroke-width="2" fill="none"/>
  <path d="M100,100 Q120,85 140,75" stroke="#4a7a96" stroke-width="2" fill="none"/>
  <path d="M100,100 Q110,120 125,140" stroke="#4a7a96" stroke-width="2" fill="none"/>
  <path d="M100,100 Q80,120 55,130" stroke="#4a7a96" stroke-width="2" fill="none"/>
  
  <!-- Rayos de dispersión curvos -->
  <path d="M70,60 Q60,50 40,35" stroke="#4a7a96" stroke-width="1.5" fill="none"/>
  <path d="M140,75 Q155,70 170,60" stroke="#4a7a96" stroke-width="1.5" fill="none"/>
  <path d="M125,140 Q135,150 150,165" stroke="#4a7a96" stroke-width="1.5" fill="none"/>
  <path d="M55,130 Q45,140 30,150" stroke="#4a7a96" stroke-width="1.5" fill="none"/>
  
  <!-- Puntos secundarios -->
  <circle cx="70" cy="60" r="5" fill="#4a7a96"/>
  <circle cx="140" cy="75" r="5" fill="#4a7a96"/>
  <circle cx="125" cy="140" r="5" fill="#4a7a96"/>
  <circle cx="55" cy="130" r="5" fill="#4a7a96"/>
  
  <!-- Centro violeta - encima de todo -->
  <circle cx="100" cy="100" r="8" fill="#5c284f"/>
</svg>
